<mxfile host="app.diagrams.net" modified="2024-05-02T19:24:24.884Z" agent="Mozilla/5.0 (Macintosh; Intel Mac OS X 10_15_7) AppleWebKit/605.1.15 (KHTML, like Gecko) Version/17.4.1 Safari/605.1.15" etag="8RrCICCcY-FG6I9nZcKB" version="24.3.1" type="device">
  <diagram name="Page-1" id="ducd93hACRnwZ_MA11Ve">
    <mxGraphModel dx="1266" dy="692" grid="1" gridSize="10" guides="1" tooltips="1" connect="1" arrows="1" fold="1" page="1" pageScale="1" pageWidth="827" pageHeight="1169" math="0" shadow="0">
      <root>
        <mxCell id="0" />
        <mxCell id="1" parent="0" />
        <mxCell id="RGdw6zsYyYciSOCUpTUz-1" value="&lt;u&gt;&lt;font style=&quot;font-size: 14px;&quot;&gt;cname&lt;/font&gt;&lt;/u&gt;" style="rounded=0;whiteSpace=wrap;html=1;" parent="1" vertex="1">
          <mxGeometry x="10" y="50" width="70" height="30" as="geometry" />
        </mxCell>
        <mxCell id="RGdw6zsYyYciSOCUpTUz-2" value="&lt;b&gt;&lt;font style=&quot;font-size: 20px;&quot;&gt;College&lt;/font&gt;&lt;/b&gt;" style="text;html=1;align=center;verticalAlign=middle;whiteSpace=wrap;rounded=0;" parent="1" vertex="1">
          <mxGeometry x="10" y="10" width="60" height="30" as="geometry" />
        </mxCell>
        <mxCell id="RGdw6zsYyYciSOCUpTUz-3" value="&lt;font style=&quot;font-size: 14px;&quot;&gt;coffice&lt;/font&gt;" style="rounded=0;whiteSpace=wrap;html=1;" parent="1" vertex="1">
          <mxGeometry x="80" y="50" width="70" height="30" as="geometry" />
        </mxCell>
        <mxCell id="RGdw6zsYyYciSOCUpTUz-4" value="&lt;font style=&quot;font-size: 14px;&quot;&gt;cphone&lt;/font&gt;" style="rounded=0;whiteSpace=wrap;html=1;" parent="1" vertex="1">
          <mxGeometry x="150" y="50" width="70" height="30" as="geometry" />
        </mxCell>
        <mxCell id="RGdw6zsYyYciSOCUpTUz-5" value="&lt;font style=&quot;font-size: 14px;&quot;&gt;dean_id&lt;/font&gt;" style="rounded=0;whiteSpace=wrap;html=1;" parent="1" vertex="1">
          <mxGeometry x="220" y="50" width="70" height="30" as="geometry" />
        </mxCell>
        <mxCell id="RGdw6zsYyYciSOCUpTUz-6" value="&lt;b&gt;&lt;font style=&quot;font-size: 20px;&quot;&gt;Instructor&lt;/font&gt;&lt;/b&gt;" style="text;html=1;align=center;verticalAlign=middle;whiteSpace=wrap;rounded=0;" parent="1" vertex="1">
          <mxGeometry x="670" y="90" width="60" height="30" as="geometry" />
        </mxCell>
        <mxCell id="RGdw6zsYyYciSOCUpTUz-7" value="&lt;u&gt;&lt;font style=&quot;font-size: 14px;&quot;&gt;ins_id&lt;/font&gt;&lt;/u&gt;" style="rounded=0;whiteSpace=wrap;html=1;" parent="1" vertex="1">
          <mxGeometry x="330" y="120" width="70" height="30" as="geometry" />
        </mxCell>
        <mxCell id="RGdw6zsYyYciSOCUpTUz-8" value="&lt;font style=&quot;font-size: 14px;&quot;&gt;ins_name&lt;/font&gt;" style="rounded=0;whiteSpace=wrap;html=1;" parent="1" vertex="1">
          <mxGeometry x="400" y="120" width="70" height="30" as="geometry" />
        </mxCell>
        <mxCell id="RGdw6zsYyYciSOCUpTUz-9" value="&lt;font style=&quot;font-size: 14px;&quot;&gt;ins_office&lt;/font&gt;" style="rounded=0;whiteSpace=wrap;html=1;" parent="1" vertex="1">
          <mxGeometry x="470" y="120" width="70" height="30" as="geometry" />
        </mxCell>
        <mxCell id="RGdw6zsYyYciSOCUpTUz-10" value="&lt;font style=&quot;font-size: 14px;&quot;&gt;ins_rank&lt;/font&gt;" style="rounded=0;whiteSpace=wrap;html=1;" parent="1" vertex="1">
          <mxGeometry x="540" y="120" width="70" height="30" as="geometry" />
        </mxCell>
        <mxCell id="RGdw6zsYyYciSOCUpTUz-11" value="&lt;font style=&quot;font-size: 14px;&quot;&gt;ins_phone&lt;/font&gt;" style="rounded=0;whiteSpace=wrap;html=1;" parent="1" vertex="1">
          <mxGeometry x="610" y="120" width="70" height="30" as="geometry" />
        </mxCell>
        <mxCell id="RGdw6zsYyYciSOCUpTUz-12" value="&lt;font style=&quot;font-size: 14px;&quot;&gt;d_code&lt;/font&gt;" style="rounded=0;whiteSpace=wrap;html=1;" parent="1" vertex="1">
          <mxGeometry x="680" y="120" width="70" height="30" as="geometry" />
        </mxCell>
        <mxCell id="RGdw6zsYyYciSOCUpTUz-13" value="" style="endArrow=classic;html=1;rounded=0;exitX=0.394;exitY=1.067;exitDx=0;exitDy=0;exitPerimeter=0;" parent="1" source="RGdw6zsYyYciSOCUpTUz-5" edge="1">
          <mxGeometry width="50" height="50" relative="1" as="geometry">
            <mxPoint x="270" y="190" as="sourcePoint" />
            <mxPoint x="320" y="140" as="targetPoint" />
            <Array as="points">
              <mxPoint x="248" y="140" />
            </Array>
          </mxGeometry>
        </mxCell>
        <mxCell id="RGdw6zsYyYciSOCUpTUz-14" value="&lt;b&gt;&lt;font style=&quot;font-size: 20px;&quot;&gt;Department&lt;/font&gt;&lt;/b&gt;" style="text;html=1;align=center;verticalAlign=middle;whiteSpace=wrap;rounded=0;" parent="1" vertex="1">
          <mxGeometry x="30" y="160" width="60" height="30" as="geometry" />
        </mxCell>
        <mxCell id="RGdw6zsYyYciSOCUpTUz-15" value="&lt;u&gt;&lt;font style=&quot;font-size: 14px;&quot;&gt;dcode&lt;/font&gt;&lt;/u&gt;" style="rounded=0;whiteSpace=wrap;html=1;" parent="1" vertex="1">
          <mxGeometry x="10" y="200" width="70" height="30" as="geometry" />
        </mxCell>
        <mxCell id="RGdw6zsYyYciSOCUpTUz-16" value="&lt;font style=&quot;font-size: 14px;&quot;&gt;dname&lt;/font&gt;" style="rounded=0;whiteSpace=wrap;html=1;" parent="1" vertex="1">
          <mxGeometry x="80" y="200" width="70" height="30" as="geometry" />
        </mxCell>
        <mxCell id="RGdw6zsYyYciSOCUpTUz-17" value="&lt;span style=&quot;font-size: 14px;&quot;&gt;doffice&lt;/span&gt;" style="rounded=0;whiteSpace=wrap;html=1;" parent="1" vertex="1">
          <mxGeometry x="150" y="200" width="70" height="30" as="geometry" />
        </mxCell>
        <mxCell id="RGdw6zsYyYciSOCUpTUz-18" value="&lt;font style=&quot;font-size: 14px;&quot;&gt;dphone&lt;/font&gt;" style="rounded=0;whiteSpace=wrap;html=1;" parent="1" vertex="1">
          <mxGeometry x="220" y="200" width="70" height="30" as="geometry" />
        </mxCell>
        <mxCell id="RGdw6zsYyYciSOCUpTUz-19" value="&lt;font style=&quot;font-size: 14px;&quot;&gt;chair_id&lt;/font&gt;" style="rounded=0;whiteSpace=wrap;html=1;" parent="1" vertex="1">
          <mxGeometry x="290" y="200" width="70" height="30" as="geometry" />
        </mxCell>
        <mxCell id="RGdw6zsYyYciSOCUpTUz-20" value="&lt;font style=&quot;font-size: 14px;&quot;&gt;chair_start_date&lt;/font&gt;" style="rounded=0;whiteSpace=wrap;html=1;" parent="1" vertex="1">
          <mxGeometry x="360" y="200" width="110" height="30" as="geometry" />
        </mxCell>
        <mxCell id="RGdw6zsYyYciSOCUpTUz-23" value="" style="endArrow=classic;html=1;rounded=0;entryX=0.5;entryY=1;entryDx=0;entryDy=0;exitX=0.406;exitY=1.107;exitDx=0;exitDy=0;exitPerimeter=0;" parent="1" source="RGdw6zsYyYciSOCUpTUz-12" target="RGdw6zsYyYciSOCUpTUz-15" edge="1">
          <mxGeometry width="50" height="50" relative="1" as="geometry">
            <mxPoint x="720" y="160" as="sourcePoint" />
            <mxPoint x="30.000000000000018" y="252.39999999999998" as="targetPoint" />
            <Array as="points">
              <mxPoint x="710" y="260" />
              <mxPoint x="45" y="260" />
            </Array>
          </mxGeometry>
        </mxCell>
        <mxCell id="RGdw6zsYyYciSOCUpTUz-24" value="" style="endArrow=classic;html=1;rounded=0;" parent="1" edge="1">
          <mxGeometry width="50" height="50" relative="1" as="geometry">
            <mxPoint x="340" y="196" as="sourcePoint" />
            <mxPoint x="340" y="156" as="targetPoint" />
          </mxGeometry>
        </mxCell>
        <mxCell id="RGdw6zsYyYciSOCUpTUz-25" value="&lt;font style=&quot;font-size: 14px;&quot;&gt;cname&lt;/font&gt;" style="rounded=0;whiteSpace=wrap;html=1;" parent="1" vertex="1">
          <mxGeometry x="470" y="200" width="110" height="30" as="geometry" />
        </mxCell>
        <mxCell id="RGdw6zsYyYciSOCUpTUz-26" value="" style="endArrow=classic;html=1;rounded=0;" parent="1" edge="1">
          <mxGeometry width="50" height="50" relative="1" as="geometry">
            <mxPoint x="520" y="200" as="sourcePoint" />
            <mxPoint x="40" y="90" as="targetPoint" />
            <Array as="points">
              <mxPoint x="520" y="180" />
              <mxPoint x="220" y="180" />
              <mxPoint x="220" y="150" />
              <mxPoint x="40" y="150" />
            </Array>
          </mxGeometry>
        </mxCell>
        <mxCell id="RGdw6zsYyYciSOCUpTUz-27" value="&lt;b&gt;&lt;font style=&quot;font-size: 20px;&quot;&gt;Course&lt;/font&gt;&lt;/b&gt;" style="text;html=1;align=center;verticalAlign=middle;whiteSpace=wrap;rounded=0;" parent="1" vertex="1">
          <mxGeometry x="680" y="310" width="60" height="30" as="geometry" />
        </mxCell>
        <mxCell id="RGdw6zsYyYciSOCUpTUz-28" value="&lt;u&gt;&lt;font style=&quot;font-size: 14px;&quot;&gt;co_code&lt;/font&gt;&lt;/u&gt;" style="rounded=0;whiteSpace=wrap;html=1;" parent="1" vertex="1">
          <mxGeometry x="340" y="360" width="70" height="30" as="geometry" />
        </mxCell>
        <mxCell id="RGdw6zsYyYciSOCUpTUz-29" value="&lt;font style=&quot;font-size: 14px;&quot;&gt;co_name&lt;/font&gt;" style="rounded=0;whiteSpace=wrap;html=1;" parent="1" vertex="1">
          <mxGeometry x="410" y="360" width="70" height="30" as="geometry" />
        </mxCell>
        <mxCell id="RGdw6zsYyYciSOCUpTUz-30" value="&lt;font style=&quot;font-size: 14px;&quot;&gt;co_credit&lt;/font&gt;" style="rounded=0;whiteSpace=wrap;html=1;" parent="1" vertex="1">
          <mxGeometry x="480" y="360" width="70" height="30" as="geometry" />
        </mxCell>
        <mxCell id="RGdw6zsYyYciSOCUpTUz-31" value="&lt;font style=&quot;font-size: 14px;&quot;&gt;co_desc&lt;/font&gt;" style="rounded=0;whiteSpace=wrap;html=1;" parent="1" vertex="1">
          <mxGeometry x="550" y="360" width="70" height="30" as="geometry" />
        </mxCell>
        <mxCell id="RGdw6zsYyYciSOCUpTUz-32" value="&lt;font style=&quot;font-size: 14px;&quot;&gt;co_level&lt;/font&gt;" style="rounded=0;whiteSpace=wrap;html=1;" parent="1" vertex="1">
          <mxGeometry x="620" y="360" width="70" height="30" as="geometry" />
        </mxCell>
        <mxCell id="RGdw6zsYyYciSOCUpTUz-33" value="&lt;font style=&quot;font-size: 14px;&quot;&gt;dcode&lt;/font&gt;" style="rounded=0;whiteSpace=wrap;html=1;" parent="1" vertex="1">
          <mxGeometry x="690" y="360" width="70" height="30" as="geometry" />
        </mxCell>
        <mxCell id="RGdw6zsYyYciSOCUpTUz-34" value="" style="endArrow=classic;html=1;rounded=0;entryX=0.25;entryY=1;entryDx=0;entryDy=0;exitX=0.5;exitY=0;exitDx=0;exitDy=0;" parent="1" edge="1">
          <mxGeometry width="50" height="50" relative="1" as="geometry">
            <mxPoint x="727.5" y="360" as="sourcePoint" />
            <mxPoint x="30" y="230" as="targetPoint" />
            <Array as="points">
              <mxPoint x="728" y="340" />
              <mxPoint x="30" y="340" />
            </Array>
          </mxGeometry>
        </mxCell>
        <mxCell id="RGdw6zsYyYciSOCUpTUz-35" value="&lt;span style=&quot;font-size: 20px;&quot;&gt;&lt;b&gt;Section&lt;/b&gt;&lt;/span&gt;" style="text;html=1;align=center;verticalAlign=middle;whiteSpace=wrap;rounded=0;" parent="1" vertex="1">
          <mxGeometry x="15" y="400" width="60" height="30" as="geometry" />
        </mxCell>
        <mxCell id="RGdw6zsYyYciSOCUpTUz-36" value="&lt;u&gt;&lt;font style=&quot;font-size: 14px;&quot;&gt;sec_id&lt;/font&gt;&lt;/u&gt;" style="rounded=0;whiteSpace=wrap;html=1;" parent="1" vertex="1">
          <mxGeometry x="15" y="440" width="70" height="30" as="geometry" />
        </mxCell>
        <mxCell id="RGdw6zsYyYciSOCUpTUz-37" value="&lt;font style=&quot;font-size: 14px;&quot;&gt;sec_number&lt;/font&gt;" style="rounded=0;whiteSpace=wrap;html=1;" parent="1" vertex="1">
          <mxGeometry x="75" y="440" width="115" height="30" as="geometry" />
        </mxCell>
        <mxCell id="RGdw6zsYyYciSOCUpTUz-38" value="&lt;font style=&quot;font-size: 14px;&quot;&gt;sec_sem&lt;/font&gt;" style="rounded=0;whiteSpace=wrap;html=1;" parent="1" vertex="1">
          <mxGeometry x="180" y="440" width="90" height="30" as="geometry" />
        </mxCell>
        <mxCell id="RGdw6zsYyYciSOCUpTUz-39" value="&lt;font style=&quot;font-size: 14px;&quot;&gt;sec_days_time&lt;/font&gt;" style="rounded=0;whiteSpace=wrap;html=1;" parent="1" vertex="1">
          <mxGeometry x="260" y="440" width="110" height="30" as="geometry" />
        </mxCell>
        <mxCell id="RGdw6zsYyYciSOCUpTUz-40" value="&lt;font style=&quot;font-size: 14px;&quot;&gt;sec_bldg&lt;/font&gt;" style="rounded=0;whiteSpace=wrap;html=1;" parent="1" vertex="1">
          <mxGeometry x="370" y="440" width="70" height="30" as="geometry" />
        </mxCell>
        <mxCell id="RGdw6zsYyYciSOCUpTUz-41" value="&lt;font style=&quot;font-size: 14px;&quot;&gt;sec_room_no&lt;/font&gt;" style="rounded=0;whiteSpace=wrap;html=1;" parent="1" vertex="1">
          <mxGeometry x="440" y="440" width="90" height="30" as="geometry" />
        </mxCell>
        <mxCell id="RGdw6zsYyYciSOCUpTUz-43" value="&lt;font style=&quot;font-size: 14px;&quot;&gt;co_code&lt;/font&gt;" style="rounded=0;whiteSpace=wrap;html=1;" parent="1" vertex="1">
          <mxGeometry x="530" y="440" width="70" height="30" as="geometry" />
        </mxCell>
        <mxCell id="RGdw6zsYyYciSOCUpTUz-44" value="" style="endArrow=classic;html=1;rounded=0;entryX=0.371;entryY=1.08;entryDx=0;entryDy=0;entryPerimeter=0;exitX=0.587;exitY=-0.013;exitDx=0;exitDy=0;exitPerimeter=0;" parent="1" source="RGdw6zsYyYciSOCUpTUz-43" target="RGdw6zsYyYciSOCUpTUz-28" edge="1">
          <mxGeometry width="50" height="50" relative="1" as="geometry">
            <mxPoint x="575" y="440" as="sourcePoint" />
            <mxPoint x="600" y="410" as="targetPoint" />
            <Array as="points">
              <mxPoint x="571" y="420" />
              <mxPoint x="366" y="420" />
            </Array>
          </mxGeometry>
        </mxCell>
        <mxCell id="RGdw6zsYyYciSOCUpTUz-45" value="&lt;font style=&quot;font-size: 14px;&quot;&gt;ins_id&lt;/font&gt;" style="rounded=0;whiteSpace=wrap;html=1;" parent="1" vertex="1">
          <mxGeometry x="600" y="440" width="60" height="30" as="geometry" />
        </mxCell>
        <mxCell id="RGdw6zsYyYciSOCUpTUz-46" value="" style="endArrow=classic;html=1;rounded=0;entryX=0.606;entryY=1;entryDx=0;entryDy=0;entryPerimeter=0;" parent="1" edge="1">
          <mxGeometry width="50" height="50" relative="1" as="geometry">
            <mxPoint x="630" y="440" as="sourcePoint" />
            <mxPoint x="372.4200000000001" y="153" as="targetPoint" />
            <Array as="points">
              <mxPoint x="630" y="413" />
              <mxPoint x="790" y="413" />
              <mxPoint x="790" y="173" />
              <mxPoint x="372" y="173" />
            </Array>
          </mxGeometry>
        </mxCell>
        <mxCell id="RGdw6zsYyYciSOCUpTUz-48" value="&lt;span style=&quot;font-size: 20px;&quot;&gt;&lt;b&gt;Student&lt;/b&gt;&lt;/span&gt;" style="text;html=1;align=center;verticalAlign=middle;whiteSpace=wrap;rounded=0;" parent="1" vertex="1">
          <mxGeometry x="700" y="490" width="60" height="30" as="geometry" />
        </mxCell>
        <mxCell id="RGdw6zsYyYciSOCUpTUz-49" value="&lt;u&gt;&lt;font style=&quot;font-size: 14px;&quot;&gt;stud_id&lt;/font&gt;&lt;/u&gt;" style="rounded=0;whiteSpace=wrap;html=1;" parent="1" vertex="1">
          <mxGeometry x="41" y="540" width="70" height="30" as="geometry" />
        </mxCell>
        <mxCell id="RGdw6zsYyYciSOCUpTUz-50" value="&lt;font style=&quot;font-size: 14px;&quot;&gt;stud_address&lt;/font&gt;" style="rounded=0;whiteSpace=wrap;html=1;" parent="1" vertex="1">
          <mxGeometry x="369" y="540" width="90" height="30" as="geometry" />
        </mxCell>
        <mxCell id="RGdw6zsYyYciSOCUpTUz-51" value="&lt;font style=&quot;font-size: 14px;&quot;&gt;stud_maj_code&lt;/font&gt;" style="rounded=0;whiteSpace=wrap;html=1;" parent="1" vertex="1">
          <mxGeometry x="459" y="540" width="100" height="30" as="geometry" />
        </mxCell>
        <mxCell id="RGdw6zsYyYciSOCUpTUz-52" value="&lt;font style=&quot;font-size: 14px;&quot;&gt;stud_dob&lt;/font&gt;" style="rounded=0;whiteSpace=wrap;html=1;" parent="1" vertex="1">
          <mxGeometry x="559" y="540" width="70" height="30" as="geometry" />
        </mxCell>
        <mxCell id="RGdw6zsYyYciSOCUpTUz-53" value="&lt;font style=&quot;font-size: 14px;&quot;&gt;stud_fname&lt;/font&gt;" style="rounded=0;whiteSpace=wrap;html=1;" parent="1" vertex="1">
          <mxGeometry x="111" y="540" width="86" height="30" as="geometry" />
        </mxCell>
        <mxCell id="RGdw6zsYyYciSOCUpTUz-55" value="&lt;font style=&quot;font-size: 14px;&quot;&gt;stud_mname&lt;/font&gt;" style="rounded=0;whiteSpace=wrap;html=1;" parent="1" vertex="1">
          <mxGeometry x="197" y="540" width="86" height="30" as="geometry" />
        </mxCell>
        <mxCell id="RGdw6zsYyYciSOCUpTUz-56" value="&lt;font style=&quot;font-size: 14px;&quot;&gt;stud_lname&lt;/font&gt;" style="rounded=0;whiteSpace=wrap;html=1;" parent="1" vertex="1">
          <mxGeometry x="283" y="540" width="86" height="30" as="geometry" />
        </mxCell>
        <mxCell id="RGdw6zsYyYciSOCUpTUz-57" value="&lt;font style=&quot;font-size: 14px;&quot;&gt;d_code&lt;/font&gt;" style="rounded=0;whiteSpace=wrap;html=1;" parent="1" vertex="1">
          <mxGeometry x="629" y="540" width="61" height="30" as="geometry" />
        </mxCell>
        <mxCell id="RGdw6zsYyYciSOCUpTUz-58" value="" style="endArrow=classic;html=1;rounded=0;exitX=0.361;exitY=-0.033;exitDx=0;exitDy=0;exitPerimeter=0;" parent="1" source="RGdw6zsYyYciSOCUpTUz-57" edge="1">
          <mxGeometry width="50" height="50" relative="1" as="geometry">
            <mxPoint x="800" y="540" as="sourcePoint" />
            <mxPoint x="60" y="230" as="targetPoint" />
            <Array as="points">
              <mxPoint x="650" y="520" />
              <mxPoint x="810" y="520" />
              <mxPoint x="810" y="380" />
              <mxPoint x="810" y="250" />
              <mxPoint x="60" y="250" />
            </Array>
          </mxGeometry>
        </mxCell>
        <mxCell id="RGdw6zsYyYciSOCUpTUz-59" value="&lt;span style=&quot;font-size: 20px;&quot;&gt;&lt;b&gt;Student_Section&lt;/b&gt;&lt;/span&gt;" style="text;html=1;align=center;verticalAlign=middle;whiteSpace=wrap;rounded=0;" parent="1" vertex="1">
          <mxGeometry x="70" y="600" width="60" height="30" as="geometry" />
        </mxCell>
        <mxCell id="RGdw6zsYyYciSOCUpTUz-60" value="&lt;font style=&quot;font-size: 14px;&quot;&gt;stud_id&lt;/font&gt;" style="rounded=0;whiteSpace=wrap;html=1;" parent="1" vertex="1">
          <mxGeometry x="62.75" y="650" width="70" height="30" as="geometry" />
        </mxCell>
        <mxCell id="RGdw6zsYyYciSOCUpTUz-61" value="&lt;font style=&quot;font-size: 14px;&quot;&gt;sec_id&lt;/font&gt;" style="rounded=0;whiteSpace=wrap;html=1;" parent="1" vertex="1">
          <mxGeometry x="132.75" y="650" width="70" height="30" as="geometry" />
        </mxCell>
        <mxCell id="RGdw6zsYyYciSOCUpTUz-62" value="&lt;font style=&quot;font-size: 14px;&quot;&gt;stud_grade&lt;/font&gt;" style="rounded=0;whiteSpace=wrap;html=1;" parent="1" vertex="1">
          <mxGeometry x="202.75" y="650" width="85" height="30" as="geometry" />
        </mxCell>
        <mxCell id="RGdw6zsYyYciSOCUpTUz-73" value="" style="endArrow=classic;html=1;rounded=0;exitX=0.5;exitY=0;exitDx=0;exitDy=0;" parent="1" source="RGdw6zsYyYciSOCUpTUz-60" edge="1">
          <mxGeometry width="50" height="50" relative="1" as="geometry">
            <mxPoint x="50" y="640" as="sourcePoint" />
            <mxPoint x="80" y="576" as="targetPoint" />
            <Array as="points">
              <mxPoint x="98" y="630" />
              <mxPoint x="240" y="630" />
              <mxPoint x="240" y="620" />
              <mxPoint x="240" y="600" />
              <mxPoint x="80" y="600" />
            </Array>
          </mxGeometry>
        </mxCell>
        <mxCell id="RGdw6zsYyYciSOCUpTUz-74" value="" style="endArrow=classic;html=1;rounded=0;entryX=0.357;entryY=1;entryDx=0;entryDy=0;entryPerimeter=0;" parent="1" target="RGdw6zsYyYciSOCUpTUz-36" edge="1">
          <mxGeometry width="50" height="50" relative="1" as="geometry">
            <mxPoint x="170" y="650" as="sourcePoint" />
            <mxPoint x="40" y="480" as="targetPoint" />
            <Array as="points">
              <mxPoint x="170" y="640" />
              <mxPoint x="10" y="640" />
              <mxPoint x="10" y="520" />
              <mxPoint x="40" y="520" />
            </Array>
          </mxGeometry>
        </mxCell>
        <mxCell id="RGdw6zsYyYciSOCUpTUz-75" value="&lt;font style=&quot;font-size: 14px;&quot;&gt;&lt;u&gt;id&lt;/u&gt;&lt;/font&gt;" style="rounded=0;whiteSpace=wrap;html=1;" parent="1" vertex="1">
          <mxGeometry x="20.25" y="650" width="42.5" height="30" as="geometry" />
        </mxCell>
      </root>
    </mxGraphModel>
  </diagram>
</mxfile>
